<svg width="116" height="127" viewBox="0 0 116 127" fill="none" xmlns="http://www.w3.org/2000/svg">
<path d="M56.0127 36.7069C57.6263 36.7069 59.0093 35.5716 59.7008 34.0579H64.0804V26.8679H47.9451V34.0579H52.3247C53.0162 35.5716 54.3992 36.7069 56.0127 36.7069Z" fill="#6B5FF2"/>
<path d="M65.9244 29.2645V36.0761H60.738C59.7007 37.7159 57.9719 38.7251 56.0126 38.7251C54.1686 38.7251 52.3246 37.7159 51.2873 36.0761H46.1009V29.2645H28.4673V102.048H83.558V29.2645H65.9244ZM47.1382 51.9698H52.9008V45.6628H59.2397V51.9698H65.0024V58.9075H59.2397V65.2146H52.9008V58.9075H47.1382V51.9698ZM38.7248 96.4974H35.1519V94.4791H38.7248V96.4974ZM38.7248 91.3256H35.1519V89.3074H38.7248V91.3256ZM38.7248 86.1539H35.1519V84.1356H38.7248V86.1539ZM38.7248 80.9821H35.1519V78.9639H38.7248V80.9821ZM76.8734 96.4974H41.8366V94.4791H76.8734V96.4974ZM76.8734 91.3256H41.8366V89.3074H76.8734V91.3256ZM76.8734 86.1539H41.8366V84.1356H76.8734V86.1539ZM76.8734 80.9821H41.8366V78.9639H76.8734V80.9821Z" fill="#35EA7F"/>
<path d="M65.1176 51.8438H59.355V45.5367H52.6703V51.8438H46.9077V59.0338H52.6703V65.4669H59.355V59.0338H65.1176V51.8438Z" fill="#ED2162"/>
<path opacity="0.1" d="M65.9245 34.0579V36.0761H60.7381C59.7008 37.7159 57.972 38.7251 56.0127 38.7251H55.7822V45.6628H59.1245V51.9698H64.8872V58.9075H59.1245V65.2146H55.7822V78.8377H76.8734V80.856H55.7822V84.0095H76.8734V86.0277H55.7822V89.1812H76.8734V91.1995H55.7822V94.353H76.8734V96.3712H55.7822V101.921H83.5581V29.2645H65.9245V34.0579Z" fill="black"/>
<path opacity="0.1" d="M59.3551 45.5367H55.7822V65.4669H59.3551V59.0338H65.1177V51.8438H59.3551V45.5367Z" fill="black"/>
<path opacity="0.1" d="M55.7822 36.7069H56.0127C57.6263 36.7069 59.0093 35.5716 59.7008 34.0579H64.0804V26.8679H55.7822V36.7069Z" fill="black"/>
</svg>
