<svg width="144" height="144" viewBox="0 0 144 144" fill="none" xmlns="http://www.w3.org/2000/svg">
<g clip-path="url(#clip0_190_329)">
<path d="M132.023 11.4948C134.661 14.1413 136.574 17.4638 137.653 21.2725C138.731 25.0812 138.953 29.3015 138.307 33.6925C137.66 38.0836 136.158 42.5593 133.885 46.8642C131.613 51.1691 128.614 55.2188 125.061 58.7821L58.6095 125.431C55.0566 128.994 51.0188 132.001 46.7266 134.28C42.4344 136.56 37.9719 138.067 33.5938 138.715C29.2157 139.363 25.0078 139.14 21.2103 138.059C17.4129 136.978 14.1002 135.059 11.4615 132.412C6.13244 127.067 3.87199 119.083 5.17745 110.215C6.48292 101.347 11.2474 92.3215 18.4227 85.125L84.8747 18.4765C92.05 11.28 101.048 6.5015 109.89 5.19218C118.732 3.88285 126.693 6.14998 132.023 11.4948Z" fill="#FF0684"/>
<path d="M116.275 4.79669C106.079 4.30435 94.2565 9.19205 84.8893 18.5873L51.7095 51.8653L91.7638 92.038L124.944 58.7601C139.932 43.7271 143.25 22.5571 132.118 11.3922C127.943 7.20543 122.392 5.09208 116.275 4.79669Z" fill="#00E721"/>
<path d="M116.275 4.79669C106.079 4.30435 94.2565 9.19205 84.8893 18.5873L18.5306 85.1422C3.54189 100.175 0.224671 121.345 11.3567 132.51L132.118 11.3922C127.943 7.20543 122.392 5.09208 116.275 4.79669Z" fill="white" fill-opacity="0.3532"/>
<path d="M132.023 11.4948C134.661 14.1413 136.574 17.4638 137.653 21.2725C138.731 25.0812 138.953 29.3015 138.307 33.6925C137.66 38.0836 136.158 42.5593 133.885 46.8642C131.613 51.1691 128.614 55.2188 125.061 58.7821L58.6095 125.431C55.0566 128.994 51.0188 132.001 46.7266 134.28C42.4344 136.56 37.9719 138.067 33.5938 138.715C29.2157 139.363 25.0078 139.14 21.2104 138.059C17.4129 136.978 14.1002 135.059 11.4615 132.412C6.13244 127.067 3.87199 119.083 5.17745 110.215C6.48292 101.347 11.2474 92.3215 18.4227 85.125L84.8747 18.4765C92.05 11.28 101.048 6.5015 109.89 5.19218C118.732 3.88285 126.693 6.14998 132.023 11.4948Z" stroke="#5A5A5A" stroke-linecap="round" stroke-linejoin="round"/>
</g>
<defs>
<clipPath id="clip0_190_329">
<rect width="143.478" height="143.902" fill="white"/>
</clipPath>
</defs>
</svg>
